<?xml version="1.0" standalone="no"?>
<!DOCTYPE svg PUBLIC "-//W3C//DTD SVG 20010904//EN"
 "http://www.w3.org/TR/2001/REC-SVG-20010904/DTD/svg10.dtd">
<svg version="1.0" xmlns="http://www.w3.org/2000/svg"
 width="75.000000pt" height="75.000000pt" viewBox="0 0 75.000000 75.000000"
 preserveAspectRatio="xMidYMid meet">
<metadata>
Created by potrace 1.11, written by Peter Selinger 2001-2013
</metadata>
<g transform="translate(0.000000,75.000000) scale(0.100000,-0.100000)"
fill="#000000" stroke="none">
<path d="M353 633 c-45 -24 -73 -46 -73 -58 0 -4 -9 -20 -21 -36 -29 -42 -31
-127 -3 -184 l21 -44 -22 -21 -22 -20 -27 21 -28 22 -21 -21 -21 -21 22 -19
c27 -24 27 -30 1 -58 -19 -20 -19 -22 -3 -39 16 -16 18 -15 42 8 l25 25 24
-26 24 -26 21 22 22 22 -24 25 -23 25 22 24 23 25 37 -23 c29 -18 48 -23 96
-21 77 3 82 5 131 40 73 52 105 166 70 249 -16 39 -126 149 -126 126 0 -7 -6
-7 -17 -2 -33 17 -104 10 -150 -15z m159 -56 c4 -6 8 -9 8 -4 0 13 60 -46 60
-60 0 -7 4 -13 8 -13 17 0 11 -92 -7 -129 -18 -35 -51 -72 -51 -57 0 4 -10 0
-22 -7 -46 -27 -128 -10 -172 35 -22 24 -29 42 -33 86 -6 74 17 119 76 148 46
22 119 23 133 1z"/>
</g>
</svg>
